<svg id="Layer_1" data-name="Layer 1" xmlns="http://www.w3.org/2000/svg" viewBox="0 0 841.9 54.3">
  <defs>
    <style>
      .cls-1, .cls-9 {
        fill: #20438d;
      }

      .cls-1, .cls-2, .cls-3, .cls-4, .cls-5, .cls-8 {
        fill-rule: evenodd;
      }

      .cls-2 {
        fill: #fdee0a;
      }

      .cls-3 {
        fill: #e41e26;
      }

      .cls-4, .cls-6 {
        fill: #fff;
      }

      .cls-5 {
        fill: #1a1818;
      }

      .cls-7 {
        fill: #a51e27;
      }

      .cls-8 {
        fill: #6e6f72;
      }
    </style>
  </defs>
  <g id="Group_1316" data-name="Group 1316">
    <path id="Path_744" data-name="Path 744" class="cls-1" d="M47,1.6,21.4,9.7V48.2L47,53Z"/>
    <path id="Path_745" data-name="Path 745" class="cls-2" d="M21.4,38.9v-10a4.9,4.9,0,0,0,3.6,0c2.1-1.3,5.3-5.1,5.3-5.1s-1.7,4.1-1.1,5.6,4.6,1.7,4.6,1.7c-2.2,1.4-4.4,2.9-6.5,4.5s-3.6,8.5-3.6,8.5-1-4.3-2.3-5.2"/>
    <path id="Path_746" data-name="Path 746" class="cls-3" d="M47,21.3a6.6,6.6,0,0,1-2.4,1.1c-2,.4-4.3-2-4.3-2s.6,3.5-.7,5.6-5.8,5.1-5.8,5.1,4.9-.9,5.8.6,1.1,7.2,1.1,7.2,2.5-6.7,4.8-7.7l1.5-.5Z"/>
    <path id="Path_747" data-name="Path 747" class="cls-4" d="M30.3,23.8s2.4-3.8,2.3-5.2-2.7-1.8-2.7-1.8,3.3-.8,4.8-2.2a15.1,15.1,0,0,0,2.7-3.9s.3,2.2,1.5,2.5,4.8-1.1,4.8-1.1a49.8,49.8,0,0,0-3.8,4.1c-1.1,1.4.4,4.2.4,4.2s-2.9-1-4.5-.7-5.5,4.1-5.5,4.1"/>
    <path id="Path_748" data-name="Path 748" class="cls-5" d="M59.9,20.9V11.3H66v1.5H61.6v2.4h3.9v1.5H61.6v4.2Z"/>
    <path id="Path_749" data-name="Path 749" class="cls-5" d="M73,20.5l-1.3.3H70l-1.4-.2-1-.7a3.7,3.7,0,0,1-.5-1.1,5.7,5.7,0,0,1-.1-1.3V13.5h1.7v3.8A2.6,2.6,0,0,0,69,19a1.7,1.7,0,0,0,1.2.5h1.1V13.5H73Z"/>
    <path id="Path_750" data-name="Path 750" class="cls-5" d="M75.1,13.9l1.2-.3h1.8l1.4.2,1,.7a3.7,3.7,0,0,1,.5,1.1,5.7,5.7,0,0,1,.1,1.3v4.1H79.5V17.1c0-.4-.1-.7-.1-1s-.1-.5-.3-.7-.2-.3-.4-.4h-2v5.9H75.1Z"/>
    <path id="Path_751" data-name="Path 751" class="cls-5" d="M89.3,20.5l-1.3.3H86.4l-1.5-.2a3.6,3.6,0,0,1-1.2-.8,2.9,2.9,0,0,1-.7-1.2,4.1,4.1,0,0,1-.3-1.6,7.7,7.7,0,0,1,.2-1.5,3.5,3.5,0,0,1,.7-1.2,2,2,0,0,1,1-.8,3.2,3.2,0,0,1,1.4-.3h.9l.7.3V11.6l1.7-.3Zm-4.9-3.4a2.7,2.7,0,0,0,.6,1.7,1.6,1.6,0,0,0,1.4.7h1.2V15.2l-.6-.3h-.8a1.4,1.4,0,0,0-1.3.6,3.4,3.4,0,0,0-.5,1.7"/>
    <path id="Path_752" data-name="Path 752" class="cls-5" d="M97.3,20.5l-1.3.3H94.3l-1.5-.2a3.1,3.1,0,0,1-.9-.7,3.7,3.7,0,0,1-.5-1.1,5.9,5.9,0,0,1-.2-1.3V13.5h1.7v3.8a3.5,3.5,0,0,0,.4,1.7,1.4,1.4,0,0,0,1.1.5h1.2V13.5h1.7Z"/>
    <path id="Path_753" data-name="Path 753" class="cls-5" d="M101.2,19.5h.9c.2-.1.4-.4.3-.6a.7.7,0,0,0-.3-.6l-1.1-.5-.8-.3-.7-.5-.4-.6a2.9,2.9,0,0,1-.2-.9,1.8,1.8,0,0,1,.8-1.5,3,3,0,0,1,2-.6h1.2l.9.2-.3,1.4-.7-.2h-1.9a.6.6,0,0,0-.3.6.4.4,0,0,0,.1.3l.2.3.4.2.6.2,1,.5a1.8,1.8,0,0,1,.7.5.9.9,0,0,1,.4.6,1.9,1.9,0,0,1,.1.8,1.8,1.8,0,0,1-.8,1.6,3.3,3.3,0,0,1-2.2.5H99.6l-.8-.3.3-1.4.9.3h1.2"/>
    <path id="Path_754" data-name="Path 754" class="cls-5" d="M110.7,14.8l-.7.8-1,1.2a7.1,7.1,0,0,0-1,1.4,11.3,11.3,0,0,0-1,1.3h3.8v1.4H105v-1a3.6,3.6,0,0,1,.8-1.2l.9-1.4,1-1.2.8-1.1h-3.3V13.6h5.5Z"/>
    <path id="Path_755" data-name="Path 755" class="cls-5" d="M111.6,17.1a4.5,4.5,0,0,1,.3-1.6,3.5,3.5,0,0,1,.7-1.2,3.8,3.8,0,0,1,1.1-.8l1.3-.2a2.8,2.8,0,0,1,2.3.9,4.7,4.7,0,0,1,.9,2.8v.3c0,.1-.1.2-.1.3h-4.8A2.7,2.7,0,0,0,114,19a2.7,2.7,0,0,0,1.5.5l1.2-.2.8-.2.2,1.4h-.4l-.5.2h-1.5a4.5,4.5,0,0,1-1.6-.3,2,2,0,0,1-1.2-.8,3.5,3.5,0,0,1-.7-1.2,6.8,6.8,0,0,1-.2-1.5m4.9-.7c0-.2-.1-.5-.1-.7l-.3-.5a1,1,0,0,0-.5-.4H115a1.7,1.7,0,0,0-1.2.5l-.3.6a1.3,1.3,0,0,0-.1.6Z"/>
    <path id="Path_756" data-name="Path 756" class="cls-5" d="M59.9,33.7V24.1H66v1.5H61.6V28h4v1.4h-4v2.9h4.8v1.4Z"/>
    <path id="Path_757" data-name="Path 757" class="cls-5" d="M73.6,33.4l-1.3.2-1.7.2a4,4,0,0,1-1.5-.3,2,2,0,0,1-.9-.7,2.4,2.4,0,0,1-.5-1,6.8,6.8,0,0,1-.2-1.4V26.3h1.7v3.8a4.7,4.7,0,0,0,.3,1.7,1.5,1.5,0,0,0,1.2.5h1.2V26.3h1.7Z"/>
    <path id="Path_758" data-name="Path 758" class="cls-5" d="M79.8,28l-.6-.2H77.3v5.8H75.6V26.8l1.2-.3,1.7-.2h1.6Z"/>
    <path id="Path_759" data-name="Path 759" class="cls-5" d="M87.7,29.9a7.8,7.8,0,0,1-.2,1.6,4.7,4.7,0,0,1-.7,1.2l-1.1.8a4,4,0,0,1-1.5.3,3.5,3.5,0,0,1-1.4-.3l-1.1-.8a4.7,4.7,0,0,1-.7-1.2,4.1,4.1,0,0,1-.3-1.6,4,4,0,0,1,.3-1.5,3.5,3.5,0,0,1,.7-1.2,2.8,2.8,0,0,1,1.1-.8,3.5,3.5,0,0,1,1.4-.3,3.2,3.2,0,0,1,1.4.3,2.3,2.3,0,0,1,1.1.8,2.5,2.5,0,0,1,.8,1.2,7.7,7.7,0,0,1,.2,1.5m-1.7,0a2.6,2.6,0,0,0-.5-1.7,1.7,1.7,0,0,0-2.3-.3l-.3.3a2.5,2.5,0,0,0-.4,1.7,3,3,0,0,0,.4,1.8,1.7,1.7,0,0,0,2.3.3l.3-.3a3.1,3.1,0,0,0,.5-1.8"/>
    <path id="Path_760" data-name="Path 760" class="cls-5" d="M95.9,30.1a7.7,7.7,0,0,1-.2,1.5,2.3,2.3,0,0,1-.6,1.2,2.5,2.5,0,0,1-1,.8,3.5,3.5,0,0,1-1.4.3h-.9l-.7-.3v2.8H89.4V26.7l1.2-.3h1.6a4.5,4.5,0,0,1,1.6.3,4.1,4.1,0,0,1,1.1.7,4.2,4.2,0,0,1,.8,1.2,8.8,8.8,0,0,1,.2,1.6m-1.7,0a2.6,2.6,0,0,0-.5-1.7,1.7,1.7,0,0,0-1.6-.6h-1V32c.1.2.3.2.5.3a1.2,1.2,0,0,0,.8.1,1.3,1.3,0,0,0,1.4-.6,3.3,3.3,0,0,0,.4-1.7"/>
    <path id="Path_761" data-name="Path 761" class="cls-5" d="M97.2,30a4.7,4.7,0,0,1,.3-1.7,2.4,2.4,0,0,1,.7-1.2,2.6,2.6,0,0,1,1.1-.7,2.7,2.7,0,0,1,1.2-.3,3.1,3.1,0,0,1,2.4,1,3.6,3.6,0,0,1,.8,2.7v.7H98.9a1.6,1.6,0,0,0,.6,1.3,2.4,2.4,0,0,0,1.6.5h1.1c.3-.1.6-.1.8-.3l.3,1.4-.4.2h-2a5.1,5.1,0,0,1-1.7-.3l-1.1-.8a3.7,3.7,0,0,1-.7-1.2,3.9,3.9,0,0,1-.2-1.5m4.8-.8a1.3,1.3,0,0,0-.1-.6,1.4,1.4,0,0,0-.2-.6c-.2-.1-.3-.3-.5-.3l-.6-.2-.7.2a1,1,0,0,0-.5.4.5.5,0,0,0-.3.5,1.4,1.4,0,0,0-.2.6Z"/>
    <path id="Path_762" data-name="Path 762" class="cls-5" d="M104.5,36.3h-1.1l.2-1.4h.8a.9.9,0,0,0,.8-.4,1.6,1.6,0,0,0,.2-1v-7h1.7v7a2.6,2.6,0,0,1-.7,2.1,2.3,2.3,0,0,1-1.9.7m2.8-12a1.1,1.1,0,0,1-.3.8,1.1,1.1,0,0,1-.7.3,1.1,1.1,0,0,1-.8-.3,1.1,1.1,0,0,1,0-1.5,1.1,1.1,0,0,1,.8-.3,1,1,0,0,1,1,1"/>
    <path id="Path_763" data-name="Path 763" class="cls-5" d="M111,32.4l1-.2a.5.5,0,0,0,.3-.5.7.7,0,0,0-.4-.6,5.3,5.3,0,0,0-1-.6l-.9-.3-.6-.5a1,1,0,0,1-.5-.6,1.1,1.1,0,0,1-.1-.8,1.7,1.7,0,0,1,.7-1.6,3.6,3.6,0,0,1,2-.6h1.2l.9.3-.3,1.3-.7-.2h-1a1.5,1.5,0,0,0-.9.2.5.5,0,0,0-.3.5.4.4,0,0,0,.1.3l.2.3.4.2.6.3,1,.4a1.8,1.8,0,0,1,.7.5l.4.6a2.5,2.5,0,0,1,.1.8,1.6,1.6,0,0,1-.7,1.6,4.6,4.6,0,0,1-2.2.6l-1.6-.2-.8-.3.3-1.4.9.3,1.2.2"/>
    <path id="Path_764" data-name="Path 764" class="cls-5" d="M117.1,29.3l.7-.7.7-.8.7-.7c.2-.2.3-.5.5-.6h2l-1.5,1.6-1.5,1.6.8.8.9,1.1a7.6,7.6,0,0,1,.8,1.1,6.1,6.1,0,0,1,.7,1h-2l-.6-.9-.7-.9-.7-.8-.8-.7v3.3h-1.7V24.4l1.7-.3Z"/>
    <path id="Path_765" data-name="Path 765" class="cls-5" d="M124.9,24.3a1,1,0,0,1-1.1,1.1,1.1,1.1,0,0,1-.7-.3,1.1,1.1,0,0,1-.3-.8,1.1,1.1,0,0,1,2.1,0m-.2,9.4H123V26.5h1.7Z"/>
    <path id="Path_766" data-name="Path 766" class="cls-5" d="M126.3,30a4.7,4.7,0,0,1,.3-1.7,3.6,3.6,0,0,1,.8-1.2,2.6,2.6,0,0,1,1.1-.7l1.2-.3a3.1,3.1,0,0,1,2.4,1,3.6,3.6,0,0,1,.8,2.7v.7h-4.8a1.6,1.6,0,0,0,.6,1.3,2.4,2.4,0,0,0,1.6.5h1.1c.3-.1.6-.1.8-.3l.2,1.4-.4.2h-1.9a5.1,5.1,0,0,1-1.7-.3l-1.1-.8a2.5,2.5,0,0,1-.7-1.2,2.6,2.6,0,0,1-.2-1.5m4.8-.8a1.3,1.3,0,0,0-.1-.6.9.9,0,0,0-.3-.6c-.1-.1-.2-.3-.4-.3l-.7-.2-.6.2a1,1,0,0,0-.5.4.5.5,0,0,0-.3.5,1.4,1.4,0,0,0-.2.6Z"/>
    <path id="Path_767" data-name="Path 767" class="cls-5" d="M63.4,42.3c-.3.8-.6,1.6-.8,2.3a16.7,16.7,0,0,0-.8,2h-.9l-.9-3c-.2-1-.4-2.1-.7-3.4h1a7.7,7.7,0,0,1,.2,1.5l.3,1.4.3,1.2.3,1.2.8-2.1L63,41h.7l.8,2.4a18,18,0,0,1,.8,2.1c.1-.4.2-.7.3-1.2l.3-1.2.3-1.4a7.7,7.7,0,0,0,.2-1.5h.9a25.3,25.3,0,0,1-.7,3.4,21.7,21.7,0,0,1-.8,3h-.9l-.8-2c-.2-.7-.5-1.5-.7-2.3"/>
    <path id="Path_768" data-name="Path 768" class="cls-5" d="M68.7,41l-.4-.2c-.1-.1-.1-.2-.1-.4s0-.3.1-.4a.6.6,0,0,1,.8,0,.6.6,0,0,1-.4,1m.4,5.6h-.8V41.8h.8Z"/>
    <path id="Path_769" data-name="Path 769" class="cls-5" d="M70.3,44.1a4.3,4.3,0,0,1,.2-1.1,2.2,2.2,0,0,1,.5-.8,1.8,1.8,0,0,1,.7-.5h.8a2.2,2.2,0,0,1,1.5.6,3.7,3.7,0,0,1,.5,1.8v.2H71.2a2.8,2.8,0,0,0,.4,1.2,1.7,1.7,0,0,0,1.2.3h.8l.4-.2v.7l-.5.2h-.9l-1.1-.2a1.8,1.8,0,0,1-.7-.5,2.2,2.2,0,0,1-.5-.8,3.4,3.4,0,0,1-.1-1m3.3-.5a1.6,1.6,0,0,0-.3-.9.9.9,0,0,0-.8-.4h-.6l-.3.3-.3.4a4.3,4.3,0,0,1-.1.5Z"/>
    <path id="Path_770" data-name="Path 770" class="cls-5" d="M78.7,39.5h.9v6.9l-.8.2h-1l-1-.2-.8-.5a2,2,0,0,1-.4-.8,1.8,1.8,0,0,1-.2-1,3.4,3.4,0,0,1,.1-1,5.9,5.9,0,0,1,.4-.8l.7-.5.9-.2h.8l.4.2Zm0,3.2-.4-.2h-.7a.7.7,0,0,0-.6.1.8.8,0,0,0-.4.4l-.3.5v.7a1.6,1.6,0,0,0,.4,1.3,1.2,1.2,0,0,0,1.1.4h.9Z"/>
    <path id="Path_771" data-name="Path 771" class="cls-5" d="M84.2,42.5c-.2.1-.3.3-.5.6l-.7.8a3.6,3.6,0,0,0-.7,1,6.1,6.1,0,0,0-.7,1h2.6v.7H80.6V46l.5-.9.7-.9.7-.9.6-.8H80.7v-.7h3.5Z"/>
    <path id="Path_772" data-name="Path 772" class="cls-5" d="M86.8,41.6h.9a1.8,1.8,0,0,1,.9,1c0,.2.1.5.1.7v3H86.1a.8.8,0,0,1-.6-.2l-.4-.5a1.9,1.9,0,0,1-.2-.7,1.4,1.4,0,0,1,.2-.7l.4-.5.7-.2h1.6v-.6c-.1-.2-.1-.3-.2-.4l-.3-.3H85.5v-.7h1.4m.1,4.3h.9V44.4H86.2l-.3.3c-.1.1-.1.2-.1.4a.7.7,0,0,0,.3.6l.8.2"/>
    <path id="Path_773" data-name="Path 773" class="cls-5" d="M92.2,46.6V40.2H96V41H93v1.9h2.7v.7H93v2.2h3.3v.8Z"/>
    <path id="Path_774" data-name="Path 774" class="cls-5" d="M100.2,39.5h.9v6.9l-.8.2h-1l-1-.2-.8-.5a2.2,2.2,0,0,1-.5-.8,5.1,5.1,0,0,1,0-2,2,2,0,0,1,.4-.8,1.8,1.8,0,0,1,.7-.5l.9-.2h.7l.5.2Zm0,3.2-.4-.2h-.7a.7.7,0,0,0-.6.1.8.8,0,0,0-.4.4c-.2.1-.2.3-.3.5v.7a1.6,1.6,0,0,0,.4,1.3,1.1,1.1,0,0,0,1.1.4h.9Z"/>
    <path id="Path_775" data-name="Path 775" class="cls-5" d="M106.3,46.3l-.8.2h-1.1l-.9-.2a.9.9,0,0,1-.6-.4,2.5,2.5,0,0,1-.4-.7c0-.3-.1-.6-.1-.9V41.7h.9v2.5a1.6,1.6,0,0,0,.3,1.3.9.9,0,0,0,.9.3h.9v-4h.9Z"/>
    <path id="Path_776" data-name="Path 776" class="cls-5" d="M109.4,44l.6.5.6.7.6.7a2.5,2.5,0,0,1,.4.7h-1l-.4-.7-.5-.6-.6-.6-.5-.4v2.3h-.9v-7h.9v4.3l.4-.5.6-.5.5-.5.3-.5h1l-.4.5-.5.6-.6.5-.5.6"/>
    <path id="Path_777" data-name="Path 777" class="cls-5" d="M114,41.6h.9a1.6,1.6,0,0,1,.8,1,1.7,1.7,0,0,1,.1.7v3h-2.6l-.6-.2-.4-.5a1.7,1.7,0,0,1-.1-.7,1.4,1.4,0,0,1,.2-.7l.4-.5.6-.2H115v-.2c0-.2,0-.3-.1-.4s0-.3-.1-.4l-.4-.3h-1.7v-.7H114m.1,4.3h.9V44.4h-1.6l-.3.3c-.1.1-.1.2-.1.4s.1.5.3.6l.8.2"/>
    <path id="Path_778" data-name="Path 778" class="cls-5" d="M119.3,46.6l-1.1-.2-.7-.5a2,2,0,0,1-.4-.8,3,3,0,0,1-.2-1,3.6,3.6,0,0,1,.2-1,2,2,0,0,1,.4-.8l.8-.5.9-.2h1.3l-.2.8-.5-.2h-.5a1.2,1.2,0,0,0-1.1.4,2,2,0,0,0-.4,1.3,1.7,1.7,0,0,0,.1.7c.1.2.1.4.3.6l.5.3a.8.8,0,0,0,.7.1c.2.1.4,0,.6,0l.4-.2v.8h-1.2"/>
    <path id="Path_779" data-name="Path 779" class="cls-5" d="M120.6,48.3H120l.2-.7h.4a.7.7,0,0,0,.6-.3,1.1,1.1,0,0,0,.2-.8V41.8h.9v4.7a2.4,2.4,0,0,1-.5,1.4,1.6,1.6,0,0,1-1.2.4m1.2-7.3-.4-.2a.6.6,0,1,1,.8,0,.5.5,0,0,1-.4.2"/>
    <path id="Path_780" data-name="Path 780" class="cls-5" d="M125.2,41.6h.9l.6.4.3.6c0,.2.1.5.1.7v3h-2.6a.8.8,0,0,1-.6-.2l-.4-.5a1.9,1.9,0,0,1-.2-.7,1.4,1.4,0,0,1,.2-.7l.4-.5.7-.2h1.6v-.6l-.2-.4-.3-.3h-1.8v-.7h1.4m.1,4.3h.9V44.4h-1.6l-.3.3c-.1.1-.1.2-.1.4a.7.7,0,0,0,.3.6l.8.2"/>
    <path id="Path_781" data-name="Path 781" class="cls-5" d="M133.7,43.9l.3.5.5.7.5.7a3,3,0,0,0,.4.8h-1l-.4-.7-.4-.7-.5-.6-.4-.5h-1.3v2.5h-.9V40.3h1.7a3,3,0,0,1,2.1.5,1.9,1.9,0,0,1,.3,2.6,1.8,1.8,0,0,1-.9.6m-1.4-3h-.9v2.4h1.5l.6-.2c.2,0,.3-.2.4-.3a1.8,1.8,0,0,0,0-1.2.8.8,0,0,0-.4-.4L133,41h-.7"/>
    <path id="Path_782" data-name="Path 782" class="cls-5" d="M140.4,44.1a3.4,3.4,0,0,1-.1,1,2.2,2.2,0,0,1-.5.8,1.8,1.8,0,0,1-.7.5,1.9,1.9,0,0,1-1.8,0,1.8,1.8,0,0,1-.7-.5,2.2,2.2,0,0,1-.5-.8,1.7,1.7,0,0,1-.1-1,1.6,1.6,0,0,1,.1-1,2.2,2.2,0,0,1,.5-.8,1.8,1.8,0,0,1,.7-.5,1.9,1.9,0,0,1,1.8,0,1.8,1.8,0,0,1,.7.5,2.2,2.2,0,0,1,.5.8,3.1,3.1,0,0,1,.1,1m-.9,0a1.9,1.9,0,0,0-.3-1.3,1.4,1.4,0,0,0-1.8-.2l-.2.2a2.4,2.4,0,0,0,0,2.6,1.4,1.4,0,0,0,1.8.2c.1-.1.1-.2.2-.2a2.1,2.1,0,0,0,.3-1.3"/>
    <path id="Path_783" data-name="Path 783" class="cls-5" d="M144.6,42.5c-.2.1-.3.3-.5.6a2.7,2.7,0,0,0-.7.8l-.8,1-.6,1h2.6v.7H141V46l.5-.9.7-.9a3.5,3.5,0,0,1,.7-.9l.6-.8h-2.4v-.7h3.5Z"/>
    <path id="Path_784" data-name="Path 784" class="cls-5" d="M149.6,46.6l-.6-1.5c-.2-.6-.3-1.2-.5-1.8s-.3,1.2-.5,1.8l-.6,1.5h-.7a11.3,11.3,0,0,1-.8-2.2,16,16,0,0,1-.8-2.6h.9a3,3,0,0,1,.2,1l.3,1,.3.9a9.4,9.4,0,0,0,.3.9l.3-1,.3-.9.3-1a2.9,2.9,0,0,1,.2-.9h.7a2.9,2.9,0,0,0,.2.9c.1.3.1.6.2,1l.3.9.3,1a9.4,9.4,0,0,0,.3-.9l.3-.9.3-1a4.4,4.4,0,0,0,.2-1h.9a16,16,0,0,1-.8,2.6,11.3,11.3,0,0,1-.8,2.2Z"/>
    <path id="Path_785" data-name="Path 785" class="cls-5" d="M156.9,44.1a3.6,3.6,0,0,1-.2,1,2.2,2.2,0,0,1-.5.8,1.8,1.8,0,0,1-.7.5,1.9,1.9,0,0,1-1.8,0,1.8,1.8,0,0,1-.7-.5,2.2,2.2,0,0,1-.5-.8,3.4,3.4,0,0,1-.1-1,3.1,3.1,0,0,1,.1-1,2.2,2.2,0,0,1,.5-.8,1.8,1.8,0,0,1,.7-.5,1.9,1.9,0,0,1,1.8,0,1.8,1.8,0,0,1,.7.5,2.2,2.2,0,0,1,.5.8,3,3,0,0,1,.2,1m-.9,0a2,2,0,0,0-.4-1.3,1.4,1.4,0,0,0-1.8-.2l-.2.2a2.4,2.4,0,0,0,0,2.6,1.4,1.4,0,0,0,1.8.2c.1-.1.1-.2.2-.2a2.2,2.2,0,0,0,.4-1.3m-.3-4.1-1.3,1.3-.4-.4,1.2-1.4Z"/>
    <path id="Path_786" data-name="Path 786" class="cls-5" d="M157.2,48.3h-.6l.2-.7h.4a.7.7,0,0,0,.6-.3,1.1,1.1,0,0,0,.2-.8V41.8h.9v4.7a2.4,2.4,0,0,1-.5,1.4,1.6,1.6,0,0,1-1.2.4m1.2-7.3-.4-.2a.6.6,0,1,1,.8,0l-.4.2"/>
  </g>
  <g id="Group_1315" data-name="Group 1315">
    <path id="Path_787" data-name="Path 787" class="cls-5" d="M355.5,14.2a7.3,7.3,0,0,1,3.8.9,3.2,3.2,0,0,1,1.3,2.8,2.9,2.9,0,0,1-2.3,3.1,8.6,8.6,0,0,1,.7,1,10.5,10.5,0,0,1,.8,1.1l.8,1.3a9.1,9.1,0,0,1,.7,1.4H359l-.7-1.2a7.5,7.5,0,0,1-.7-1.2l-.8-1.1-.6-.9h-1.8v4.4h-2V14.5l1.6-.2h1.5m.2,1.8h-1.3v3.7h2.3l.9-.3a.9.9,0,0,0,.6-.6,1.5,1.5,0,0,0,.2-.9,1.5,1.5,0,0,0-.2-.9l-.5-.6-.9-.3h-1.1"/>
    <path id="Path_788" data-name="Path 788" class="cls-5" d="M369,18.5l-.9,1a17.1,17.1,0,0,0-1.1,1.4,10.1,10.1,0,0,0-1.3,1.6l-1.1,1.6h4.5v1.7h-6.9V24.5l.9-1.4a9.1,9.1,0,0,0,1.1-1.6l1.2-1.5,1-1.2h-4V17.1H369Z"/>
    <path id="Path_789" data-name="Path 789" class="cls-5" d="M370.1,21.5a4.5,4.5,0,0,1,.4-2,4.2,4.2,0,0,1,.9-1.4,3,3,0,0,1,1.3-.9,3.2,3.2,0,0,1,1.4-.3,3.9,3.9,0,0,1,2.8,1.1,4.5,4.5,0,0,1,1,3.3v.8h-5.7a2.4,2.4,0,0,0,.7,1.6,2.6,2.6,0,0,0,1.9.5h1.4l.9-.3.3,1.7h-.5l-.6.2h-1.7a4.5,4.5,0,0,1-2-.4,4.2,4.2,0,0,1-1.4-.9,6.4,6.4,0,0,1-.8-1.4,5.7,5.7,0,0,1-.3-1.8Zm5.8-.9a2.2,2.2,0,0,0-.1-.8l-.3-.6-.6-.5h-.7a1.1,1.1,0,0,0-.8.2.9.9,0,0,0-.6.4,1.6,1.6,0,0,0-.4.7,6.4,6.4,0,0,0-.2.7Z"/>
    <path id="Path_790" data-name="Path 790" class="cls-5" d="M379.5,21.5a4.8,4.8,0,0,1,.3-1.8,3.8,3.8,0,0,1,.9-1.5,3.8,3.8,0,0,1,1.3-.9,3.9,3.9,0,0,1,1.8-.4,5.9,5.9,0,0,1,2.3.5l-.4,1.6-.8-.2H384a2,2,0,0,0-1.8.7,3.1,3.1,0,0,0-.6,2.1,3.6,3.6,0,0,0,.6,2,2.3,2.3,0,0,0,1.9.7h1l.9-.2.3,1.6-1,.3-1.4.2a4.1,4.1,0,0,1-1.9-.4,3.4,3.4,0,0,1-1.4-.9,3.9,3.9,0,0,1-.8-1.4,5.7,5.7,0,0,1-.3-1.8"/>
    <path id="Path_791" data-name="Path 791" class="cls-5" d="M393.8,18.5l-.8,1-1.2,1.4-1.2,1.6-1.1,1.6h4.4v1.7h-6.8V24.5a6.7,6.7,0,0,1,.9-1.4l1.1-1.6,1.1-1.5,1.1-1.2h-4V17.1h6.5Z"/>
    <path id="Path_792" data-name="Path 792" class="cls-5" d="M403.5,21.5a11,11,0,0,1-.2,1.8,3.9,3.9,0,0,1-.8,1.4,2.7,2.7,0,0,1-1.2.9,4.1,4.1,0,0,1-1.6.3h-1.1l-.8-.3v3.3h-2V17.4l1.5-.3h1.8a5.8,5.8,0,0,1,1.9.3,3.6,3.6,0,0,1,2.2,2.3,5.8,5.8,0,0,1,.3,1.9m-2,0a3.7,3.7,0,0,0-.6-2.1,2.4,2.4,0,0,0-2-.7h-1.1v4.9l.7.4h.9a1.7,1.7,0,0,0,1.6-.7,4.6,4.6,0,0,0,.5-2"/>
    <path id="Path_793" data-name="Path 793" class="cls-5" d="M413.4,21.4a5.8,5.8,0,0,1-.3,1.9,4.2,4.2,0,0,1-.9,1.4,4.5,4.5,0,0,1-1.3,1,4.7,4.7,0,0,1-1.7.3,4.5,4.5,0,0,1-1.6-.3,4.5,4.5,0,0,1-1.3-1,4.2,4.2,0,0,1-.9-1.4,5.8,5.8,0,0,1-.3-1.9,5.7,5.7,0,0,1,.3-1.8,4.2,4.2,0,0,1,.9-1.4,3,3,0,0,1,1.3-.9,3.8,3.8,0,0,1,3.3,0,3,3,0,0,1,1.3.9,4.2,4.2,0,0,1,.9,1.4,5.7,5.7,0,0,1,.3,1.8m-2.1,0a2.9,2.9,0,0,0-.5-2,2,2,0,0,0-2.8-.3l-.3.3a3.6,3.6,0,0,0-.6,2,3.7,3.7,0,0,0,.6,2.1,2,2,0,0,0,2.7.4l.4-.4a3,3,0,0,0,.5-2.1"/>
    <path id="Path_794" data-name="Path 794" class="cls-5" d="M417.6,24.3a2,2,0,0,0,1.1-.2.5.5,0,0,0,.4-.6.7.7,0,0,0-.4-.7,3.1,3.1,0,0,0-1.3-.6l-1-.5-.7-.5a2,2,0,0,1-.6-.7,1.7,1.7,0,0,1-.1-1,2.1,2.1,0,0,1,.8-1.9,4.2,4.2,0,0,1,2.4-.7l1.4.2,1.1.2-.4,1.7a1.3,1.3,0,0,0-.8-.3h-1.2a1.2,1.2,0,0,0-1,.2.7.7,0,0,0-.4.6.6.6,0,0,0,.1.4l.3.3.4.3.8.3,1.2.5.8.5a3,3,0,0,1,.4.8,3,3,0,0,1,.2,1,2.1,2.1,0,0,1-.9,1.8,4.8,4.8,0,0,1-2.6.7l-1.9-.2-.9-.3.3-1.7,1.1.4h1.4"/>
    <path id="Path_795" data-name="Path 795" class="cls-5" d="M430.7,21.5a11,11,0,0,1-.2,1.8,3.9,3.9,0,0,1-.8,1.4,2.7,2.7,0,0,1-1.2.9,4.1,4.1,0,0,1-1.6.3,4.8,4.8,0,0,1-2-.4v3.3H423V17.4l1.4-.3h1.9a5.8,5.8,0,0,1,1.9.3,3.8,3.8,0,0,1,1.3.9,4.2,4.2,0,0,1,.9,1.4,5.8,5.8,0,0,1,.3,1.9m-2,0a3.7,3.7,0,0,0-.6-2.1,2.4,2.4,0,0,0-2-.7h-1.2v4.9l.7.4h1a1.7,1.7,0,0,0,1.6-.7,4.6,4.6,0,0,0,.5-2"/>
    <path id="Path_796" data-name="Path 796" class="cls-5" d="M440.6,21.4a5.8,5.8,0,0,1-.3,1.9,4.2,4.2,0,0,1-.9,1.4,4.5,4.5,0,0,1-1.3,1,4.7,4.7,0,0,1-1.7.3,5.1,5.1,0,0,1-1.7-.3l-1.3-1a6.4,6.4,0,0,1-.8-1.4,5.8,5.8,0,0,1-.3-1.9,5.7,5.7,0,0,1,.3-1.8,4.2,4.2,0,0,1,.9-1.4,3,3,0,0,1,1.3-.9,3.2,3.2,0,0,1,1.6-.4,3.3,3.3,0,0,1,1.7.4,3.8,3.8,0,0,1,1.3.9,4.2,4.2,0,0,1,.9,1.4,5.7,5.7,0,0,1,.3,1.8m-2.1,0a2.9,2.9,0,0,0-.5-2,2,2,0,0,0-2.8-.3l-.3.3a3.6,3.6,0,0,0-.6,2,3.7,3.7,0,0,0,.6,2.1,2,2,0,0,0,2.7.4l.4-.4a3,3,0,0,0,.5-2.1"/>
    <path id="Path_797" data-name="Path 797" class="cls-5" d="M445.6,25.9a3.9,3.9,0,0,1-1.5-.2l-.9-.5a2.2,2.2,0,0,1-.5-.8,4.9,4.9,0,0,1-.1-1.2V14.8l2-.3v9l.2.4.4.2.7.2Z"/>
    <path id="Path_798" data-name="Path 798" class="cls-5" d="M449.7,14.6a1.2,1.2,0,0,1-.3.9,1.6,1.6,0,0,1-.9.3c-.3.1-.6-.1-.9-.3a1.2,1.2,0,0,1-.3-.9,1.6,1.6,0,0,1,.3-.9,1.5,1.5,0,0,1,1.8,0,1.6,1.6,0,0,1,.3.9m-.2,11.2h-2V17.1h2Z"/>
    <path id="Path_799" data-name="Path 799" class="cls-5" d="M452,14.8l1.9-.3v2.6H457v1.7h-3.1v3.5a2.8,2.8,0,0,0,.4,1.5,1.1,1.1,0,0,0,1.1.4h1l.6-.2.4,1.6-1,.3-1.3.2a4,4,0,0,1-1.5-.3,2.3,2.3,0,0,1-1-.7,3.7,3.7,0,0,1-.5-1.1,8.8,8.8,0,0,1-.2-1.6Z"/>
    <path id="Path_800" data-name="Path 800" class="cls-5" d="M461.8,16.9a5.1,5.1,0,0,1,1.7.3,1.7,1.7,0,0,1,1,.7,2.1,2.1,0,0,1,.6,1,7.8,7.8,0,0,1,.2,1.4v5.3l-1.4.2h-3.5l-1.1-.5a1.8,1.8,0,0,1-.7-.8,3.5,3.5,0,0,1-.3-1.3,2.8,2.8,0,0,1,.3-1.3l.8-.8a2.2,2.2,0,0,1,1.1-.5h2.1l.8.2v-.4c0-.2-.1-.4-.1-.6l-.3-.6-.5-.4h-2.2l-.9.2-.2-1.6,1.1-.2,1.5-.2m.2,7.5h1.4V22h-2.5a.8.8,0,0,0-.4.4,1.4,1.4,0,0,0-.2.6,1,1,0,0,0,.5,1,2.1,2.1,0,0,0,1.2.3"/>
    <path id="Path_801" data-name="Path 801" class="cls-5" d="M355.6,29.5a6.5,6.5,0,0,1,3.8.9,3.1,3.1,0,0,1,1.3,2.8,5.7,5.7,0,0,1-.3,1.8,3.8,3.8,0,0,1-1.1,1.1,3.3,3.3,0,0,1-1.6.7l-2.2.2h-1.1v4h-2V29.8l1.6-.2h1.6m.1,1.8h-1.3v3.9h1.1a4.9,4.9,0,0,0,2.3-.4,1.8,1.8,0,0,0,.8-1.6,1.6,1.6,0,0,0-.3-.9,1,1,0,0,0-.5-.6,1.6,1.6,0,0,0-.9-.3h-1.2"/>
    <path id="Path_802" data-name="Path 802" class="cls-5" d="M370,36.7a6.3,6.3,0,0,1-.3,1.9,3.9,3.9,0,0,1-.8,1.4,3.8,3.8,0,0,1-1.3.9,3.5,3.5,0,0,1-1.7.4,3.3,3.3,0,0,1-1.7-.4,3.8,3.8,0,0,1-1.3-.9,2.9,2.9,0,0,1-.8-1.4,3.2,3.2,0,0,1-.3-1.9,2.8,2.8,0,0,1,.3-1.8,2.8,2.8,0,0,1,.8-1.5,3.8,3.8,0,0,1,1.3-.9,4.7,4.7,0,0,1,1.7-.3,5.1,5.1,0,0,1,1.7.3,3.8,3.8,0,0,1,1.3.9,5.3,5.3,0,0,1,.8,1.5,5.2,5.2,0,0,1,.3,1.8m-2,0a3.6,3.6,0,0,0-.6-2,1.9,1.9,0,0,0-2.7-.4l-.4.4a3.5,3.5,0,0,0-.5,2,3.8,3.8,0,0,0,.5,2.1,2,2,0,0,0,2.8.3l.3-.3a3.9,3.9,0,0,0,.6-2.1"/>
    <path id="Path_803" data-name="Path 803" class="cls-5" d="M375.1,41.2l-1.5-.2a1.9,1.9,0,0,1-.9-.5,1.6,1.6,0,0,1-.5-.9,3.6,3.6,0,0,1-.2-1.1V30.1l2-.4v8.4a1.3,1.3,0,0,0,.1.6,1.1,1.1,0,0,0,.6.7h.6Z"/>
    <path id="Path_804" data-name="Path 804" class="cls-5" d="M379.1,39.6a2.5,2.5,0,0,0,1.2-.2c.2-.1.4-.4.3-.6a.9.9,0,0,0-.4-.8l-1.2-.6-1-.4-.8-.5a2.2,2.2,0,0,1-.7-1.7,2.2,2.2,0,0,1,.9-1.9,3.2,3.2,0,0,1,2.3-.7h1.5l1,.3-.3,1.6a7.8,7.8,0,0,0-2.1-.4l-1,.2a.9.9,0,0,0-.3.7V35l.3.3a.5.5,0,0,0,.5.3l.7.3,1.2.5.8.6.5.7a3.8,3.8,0,0,1,.1,1,2,2,0,0,1-.9,1.9,4,4,0,0,1-2.6.6,3.7,3.7,0,0,1-1.8-.2,1.7,1.7,0,0,1-1-.3l.3-1.6,1.1.3,1.4.2"/>
    <path id="Path_805" data-name="Path 805" class="cls-5" d="M386.5,35.8l.8-.9.8-.9.8-.9a1.9,1.9,0,0,0,.6-.7h2.4l-1.7,1.9c-.6.7-1.3,1.3-1.9,1.9l1.1,1,1,1.3a11.3,11.3,0,0,1,1,1.3l.7,1.2h-2.3a6.1,6.1,0,0,0-.7-1,4.4,4.4,0,0,0-.8-1.1l-.9-1-.9-.8V41h-2V30.1l2-.4Z"/>
    <path id="Path_806" data-name="Path 806" class="cls-5" d="M396.4,32.2l1.7.2a4.1,4.1,0,0,1,1.1.7,3.7,3.7,0,0,1,.5,1.1,3.4,3.4,0,0,1,.2,1.4v5.2l-1.4.3H395l-1.1-.5a2.2,2.2,0,0,1-.7-.9,1.9,1.9,0,0,1-.2-1.3,1.7,1.7,0,0,1,.2-1.2,2.4,2.4,0,0,1,.8-.9l1.2-.4,1.3-.2H398v-.3a1.7,1.7,0,0,0-.1-.7,1.4,1.4,0,0,0-.8-.9H395l-1,.2-.2-1.6,1.1-.3h1.5m.2,7.4H398V37.3h-1.8l-.7.2c-.1.1-.3.2-.4.4a1.4,1.4,0,0,0-.2.6,1.1,1.1,0,0,0,.5.9,1.8,1.8,0,0,0,1.2.3"/>
    <rect id="Rectangle_2739" data-name="Rectangle 2739" class="cls-6" x="269.7" y="4.8" width="67.7" height="23.42"/>
    <rect id="Rectangle_2740" data-name="Rectangle 2740" class="cls-7" x="269.7" y="27.3" width="67.7" height="22.56"/>
    <path id="Path_807" data-name="Path 807" class="cls-8" d="M337.1,49.7H269.9V5h67.2Zm.2-44.9H269.7V49.9h67.6Z"/>
  </g>
  <g id="Group_1311" data-name="Group 1311">
    <rect id="Rectangle_2738" data-name="Rectangle 2738" class="cls-9" x="747.3" y="2.7" width="73.8" height="49.24"/>
    <path id="Path_692" data-name="Path 692" class="cls-2" d="M782.7,13.4l1.5-1.1,1.6,1.1-.6-1.8,1.6-1.1h-2l-.6-1.9-.6,1.9h-1.9l1.5,1.1Z"/>
    <path id="Path_693" data-name="Path 693" class="cls-2" d="M774.6,15.6l1.5-1.1,1.6,1.1-.6-1.8,1.6-1.2h-2l-.6-1.8-.6,1.8h-1.9l1.6,1.2Z"/>
    <path id="Path_694" data-name="Path 694" class="cls-2" d="M770.2,16.7l-.6,1.8h-1.9l1.6,1.2-.6,1.8,1.5-1.1,1.6,1.1-.6-1.8,1.6-1.2h-2Z"/>
    <path id="Path_695" data-name="Path 695" class="cls-2" d="M768.1,28.4l1.5,1.2-.6-1.9,1.6-1.1h-1.9l-.6-1.9-.6,1.9h-2l1.6,1.1-.6,1.9Z"/>
    <path id="Path_696" data-name="Path 696" class="cls-2" d="M770.8,34.7l-.6-1.9-.6,1.9h-1.9l1.6,1.1-.6,1.8,1.5-1.1,1.6,1.1-.6-1.8,1.6-1.1Z"/>
    <path id="Path_697" data-name="Path 697" class="cls-2" d="M776.8,40.6l-.6-1.9-.7,1.9h-1.9l1.6,1.1-.6,1.9,1.6-1.2,1.5,1.2-.6-1.9,1.6-1.1Z"/>
    <path id="Path_698" data-name="Path 698" class="cls-2" d="M784.8,42.7l-.6-1.8-.6,1.8h-1.9l1.5,1.2-.6,1.8,1.6-1.1,1.6,1.1-.6-1.8,1.6-1.2Z"/>
    <path id="Path_699" data-name="Path 699" class="cls-2" d="M792.9,40.6l-.6-1.9-.6,1.9h-2l1.6,1.1-.6,1.9,1.6-1.2,1.5,1.2-.6-1.9,1.6-1.1Z"/>
    <path id="Path_700" data-name="Path 700" class="cls-2" d="M798.8,34.7l-.6-1.9-.6,1.9h-2l1.6,1.1-.6,1.8,1.6-1.1,1.5,1.1-.6-1.8,1.6-1.1Z"/>
    <path id="Path_701" data-name="Path 701" class="cls-2" d="M802.9,26.6h-2l-.6-1.9-.6,1.9h-1.9l1.6,1.1-.6,1.8,1.5-1.1,1.6,1.1-.6-1.8Z"/>
    <path id="Path_702" data-name="Path 702" class="cls-2" d="M796.6,21.5l1.6-1.1,1.5,1.1-.6-1.8,1.6-1.2h-1.9l-.6-1.8-.6,1.8h-2l1.6,1.2Z"/>
    <path id="Path_703" data-name="Path 703" class="cls-2" d="M792.3,10.8l-.6,1.8h-2l1.6,1.2-.6,1.8,1.6-1.1,1.5,1.1-.5-1.8,1.5-1.2h-1.9Z"/>
    <path id="Path_704" data-name="Path 704" class="cls-5" d="M576,39.9V31.8h5v.9h-3.9v2.5h3.4v.9h-3.4v2.8h4.1v1Z"/>
    <path id="Path_705" data-name="Path 705" class="cls-5" d="M587.2,39.6l-1,.2h-1.4l-1.2-.2a1.6,1.6,0,0,1-.8-.6,3.6,3.6,0,0,1-.4-.9,3.7,3.7,0,0,1-.1-1.1V33.7h1.1v3.2a2.3,2.3,0,0,0,.3,1.6,1.3,1.3,0,0,0,1.2.4h1.2V33.7h1.1Z"/>
    <path id="Path_706" data-name="Path 706" class="cls-5" d="M591.3,33.7h1.2l-.2,1h-2.2v5.1H589V34.1a2.9,2.9,0,0,1,1-.3h1.3"/>
    <path id="Path_707" data-name="Path 707" class="cls-5" d="M598.9,36.7a2.8,2.8,0,0,1-.3,1.3,3.1,3.1,0,0,1-.5,1l-1,.7a3,3,0,0,1-2.3,0l-.9-.7-.6-1a5.1,5.1,0,0,1-.2-1.3,5.9,5.9,0,0,1,.2-1.3l.6-1,.9-.7,1.2-.2,1.1.2,1,.7a3.1,3.1,0,0,1,.5,1,3.1,3.1,0,0,1,.3,1.3m-1.2,0a2.2,2.2,0,0,0-.4-1.6,1.7,1.7,0,0,0-2.3-.3l-.3.3a2.2,2.2,0,0,0-.4,1.6,2.2,2.2,0,0,0,.4,1.6,1.7,1.7,0,0,0,2.3.3l.3-.3a2.2,2.2,0,0,0,.4-1.6"/>
    <path id="Path_708" data-name="Path 708" class="cls-5" d="M605.7,36.9a5,5,0,0,1-.2,1.2,3.1,3.1,0,0,1-.5,1,2.2,2.2,0,0,1-.9.7,2,2,0,0,1-1.1.2h-1l-.6-.3v2.5h-1.1V34l1-.2h1.3a2.7,2.7,0,0,1,1.3.2,2.1,2.1,0,0,1,1,.6,5.3,5.3,0,0,1,.6,1,6.8,6.8,0,0,1,.2,1.4m-1.1,0a2.7,2.7,0,0,0-.6-1.7,1.7,1.7,0,0,0-1.4-.6h-1.2v3.9l.6.3.8.2.8-.2.6-.5.3-.7c0-.3.1-.6.1-.9"/>
    <path id="Path_709" data-name="Path 709" class="cls-5" d="M606.8,36.7a3.5,3.5,0,0,1,.3-1.4,2.1,2.1,0,0,1,.6-1,1.8,1.8,0,0,1,.9-.6l1-.2a2.4,2.4,0,0,1,1.9.8,3.7,3.7,0,0,1,.7,2.3V37H608a2.4,2.4,0,0,0,.5,1.4,1.7,1.7,0,0,0,1.5.5h1l.6-.2v.9l-.7.3h-1.1a3.5,3.5,0,0,1-1.4-.3,1.8,1.8,0,0,1-.9-.6,2.1,2.1,0,0,1-.6-1,5.9,5.9,0,0,1-.2-1.3m4.2-.6a2.7,2.7,0,0,0-.3-1.2,1.6,1.6,0,0,0-1.1-.5l-.7.2-.4.4a1,1,0,0,0-.4.5c0,.2-.1.4-.1.6Z"/>
    <path id="Path_710" data-name="Path 710" class="cls-5" d="M612.7,42.1h-.8l.2-.9h.5a.8.8,0,0,0,.8-.3,1.9,1.9,0,0,0,.3-1v-6h1.1v6a2.7,2.7,0,0,1-.6,1.7,2,2,0,0,1-1.5.6Zm1.5-9.4-.5-.2a.8.8,0,0,1-.2-.5.7.7,0,0,1,.7-.7c.2,0,.4,0,.5.2s.2.3.2.5,0,.4-.2.5l-.5.2"/>
    <path id="Path_711" data-name="Path 711" class="cls-5" d="M618,39l1-.2a.6.6,0,0,0,.3-.6.7.7,0,0,0-.3-.6l-1-.5-.7-.3-.6-.4-.4-.4a1.7,1.7,0,0,1,.5-2,2.5,2.5,0,0,1,1.6-.5h1.7l-.2.9-.6-.2h-.9l-.8.2a.6.6,0,0,0-.3.6v.3l.2.3.4.2a1.1,1.1,0,0,0,.6.2l.7.4.6.3a2.1,2.1,0,0,1,.4.6,1.5,1.5,0,0,1,.1.7,1.6,1.6,0,0,1-.6,1.3,3.9,3.9,0,0,1-1.8.4h-1.3l-.6-.2.2-1,.6.2,1.1.2"/>
    <path id="Path_712" data-name="Path 712" class="cls-5" d="M624,36.5l.7.7.8.9.7.9.6.9h-1.3l-.6-.8-.6-.9-.8-.7a1.8,1.8,0,0,0-.7-.5v2.9h-1V31l1-.2v5.6l.7-.7.6-.7.7-.6.5-.6h1.2l-.5.6-.7.7-.7.8-.6.6"/>
    <path id="Path_713" data-name="Path 713" class="cls-5" d="M628.4,32.7l-.5-.2a.7.7,0,0,1,0-1c.1-.2.3-.2.5-.2s.6.2.7.6h0a.8.8,0,0,1-.2.5l-.5.2m.5,7.2h-1.1V33.8h1.1Z"/>
    <path id="Path_714" data-name="Path 714" class="cls-5" d="M633.4,39.9V31.8h4.9v.9h-3.7v2.5h3.3v1h-3.3v3.7Z"/>
    <path id="Path_715" data-name="Path 715" class="cls-5" d="M644.2,39.6l-1,.2h-1.4l-1.2-.2a1.6,1.6,0,0,1-.8-.6,3.6,3.6,0,0,1-.4-.9,2,2,0,0,1-.1-1.1V33.7h1v3.2a3.2,3.2,0,0,0,.4,1.6,1.3,1.3,0,0,0,1.2.4h1.2V33.7h1.1Z"/>
    <path id="Path_716" data-name="Path 716" class="cls-5" d="M646,34l1-.2h1.4a2.5,2.5,0,0,1,1.2.2l.8.5a3.6,3.6,0,0,1,.4.9,4.9,4.9,0,0,1,.1,1.2v3.4h-1.1V36.7a3.8,3.8,0,0,0-.1-1,1.4,1.4,0,0,0-.2-.6,1,1,0,0,0-.5-.4h-1.9v5.2H646Z"/>
    <path id="Path_717" data-name="Path 717" class="cls-5" d="M656.6,30.8h1.1v8.9l-1,.2h-1.3l-1.3-.2a3,3,0,0,1-1.6-1.7,5.1,5.1,0,0,1-.2-1.3,5.9,5.9,0,0,1,.2-1.3,3.1,3.1,0,0,1,.5-1l.9-.7a3,3,0,0,1,2.1,0l.6.2Zm0,4.1-.6-.3h-1.6l-.5.5a1.1,1.1,0,0,0-.3.7,2.8,2.8,0,0,0-.1.9,2.2,2.2,0,0,0,.5,1.7,1.9,1.9,0,0,0,1.4.5h1.2Z"/>
    <path id="Path_718" data-name="Path 718" class="cls-5" d="M664.4,39.6l-1,.2h-1.5l-1.1-.2a1.6,1.6,0,0,1-.8-.6,1.8,1.8,0,0,1-.4-.9,3.6,3.6,0,0,1-.2-1.1V33.7h1.1v3.2a3.2,3.2,0,0,0,.4,1.6,1.3,1.3,0,0,0,1.2.4h1.2V33.7h1.1Z"/>
    <path id="Path_719" data-name="Path 719" class="cls-5" d="M667.6,39l1-.2a.6.6,0,0,0,.3-.6.7.7,0,0,0-.3-.6l-1.1-.5-.6-.3-.6-.4-.4-.4a2,2,0,0,1-.1-.7,1.6,1.6,0,0,1,.6-1.3,2.4,2.4,0,0,1,1.6-.5h1.7l-.2.9-.6-.2H668l-.8.2a.6.6,0,0,0-.3.6v.3l.2.3.4.2a1.1,1.1,0,0,0,.6.2l.7.4.6.3a2.1,2.1,0,0,1,.4.6,1.5,1.5,0,0,1,.1.7,1.6,1.6,0,0,1-.6,1.3,3.9,3.9,0,0,1-1.8.4h-1.3l-.6-.2.2-1,.6.2,1.1.2"/>
    <path id="Path_720" data-name="Path 720" class="cls-5" d="M675.4,34.6l-.7.8-.8,1.1-1,1.2-.8,1.3h3.4v.9h-4.7v-.7l.7-1.2.9-1.2.9-1.2.7-.9h-3v-.9h4.4Z"/>
    <path id="Path_721" data-name="Path 721" class="cls-5" d="M681.4,38.9q1.8,0,1.8-1.2a1,1,0,0,0-.2-.7l-.4-.4c-.2-.1-.4-.3-.6-.3l-.7-.3-.9-.4-.7-.4a1.6,1.6,0,0,1-.4-.7,1.9,1.9,0,0,1-.2-.8,2.1,2.1,0,0,1,.7-1.7,3.6,3.6,0,0,1,2-.6l1.4.2.9.3-.4.9-.7-.3h-1.8l-.5.2-.3.3a1.1,1.1,0,0,0-.1.5,1.3,1.3,0,0,0,.1.6l.4.4.5.3.7.3,1,.4.7.5a1.8,1.8,0,0,1,.5.7,1.6,1.6,0,0,1,.2,1,2.1,2.1,0,0,1-.8,1.6,4,4,0,0,1-2.2.6h-1.6l-.5-.2-.4-.2.4-.9.8.3,1.3.2"/>
    <path id="Path_722" data-name="Path 722" class="cls-5" d="M691,36.9a2.5,2.5,0,0,1-.2,1.2,3.1,3.1,0,0,1-.5,1,2.2,2.2,0,0,1-.9.7,2,2,0,0,1-1.1.2h-1l-.6-.3v2.5h-1.1V34l1-.2h1.3a2.7,2.7,0,0,1,1.3.2,2.1,2.1,0,0,1,1,.6,2.7,2.7,0,0,1,.6,1,6.8,6.8,0,0,1,.2,1.4m-1.1,0a2.7,2.7,0,0,0-.6-1.7,1.7,1.7,0,0,0-1.4-.6h-1.2v3.9l.6.3.8.2.8-.2.6-.5.3-.7c0-.3.1-.6.1-.9"/>
    <path id="Path_723" data-name="Path 723" class="cls-5" d="M697.9,36.7a5.1,5.1,0,0,1-.2,1.3l-.6,1-.9.7a3,3,0,0,1-2.3,0,2.2,2.2,0,0,1-.9-.7,2.1,2.1,0,0,1-.6-1,1.9,1.9,0,0,1-.2-1.3,2,2,0,0,1,.2-1.3,2.1,2.1,0,0,1,.6-1,2.2,2.2,0,0,1,.9-.7,3,3,0,0,1,2.3,0l.9.7.6,1a5.9,5.9,0,0,1,.2,1.3m-1.2,0a2.2,2.2,0,0,0-.4-1.6,1.7,1.7,0,0,0-2.3-.3c-.1.1-.2.2-.2.3a2.2,2.2,0,0,0-.5,1.6,2.2,2.2,0,0,0,.5,1.6,1.6,1.6,0,0,0,2.2.3l.3-.3a2.2,2.2,0,0,0,.4-1.6"/>
    <path id="Path_724" data-name="Path 724" class="cls-5" d="M701.3,40a2.3,2.3,0,0,1-1.4-.4,1.6,1.6,0,0,1-.4-1.3V35.9l-.7.3-.4-.7,1.1-.5V31l1.1-.2v3.6l.8-.4.4.7-1.2.6v3.3l.2.3h.7Z"/>
    <path id="Path_725" data-name="Path 725" class="cls-5" d="M702.3,36.7a6.8,6.8,0,0,1,.2-1.4,3.6,3.6,0,0,1,.7-1,1.5,1.5,0,0,1,.9-.6l1-.2a2.4,2.4,0,0,1,1.9.8,3.1,3.1,0,0,1,.6,2.3V37h-4.2a3.5,3.5,0,0,0,.6,1.4,1.7,1.7,0,0,0,1.5.5h1l.6-.2v.9l-.7.3h-1.1a3.2,3.2,0,0,1-1.4-.3,1.5,1.5,0,0,1-.9-.6,2.1,2.1,0,0,1-.6-1,5.9,5.9,0,0,1-.2-1.3Zm4.2-.6a1.9,1.9,0,0,0-.4-1.2,1.2,1.2,0,0,0-1-.5l-.7.2-.5.4-.3.5c0,.2-.1.4-.1.6Z"/>
    <path id="Path_726" data-name="Path 726" class="cls-5" d="M711.8,39.9l-1.3-.2a2.2,2.2,0,0,1-.9-.7,2.1,2.1,0,0,1-.6-1,5.1,5.1,0,0,1-.2-1.3,6.9,6.9,0,0,1,.2-1.3,2.7,2.7,0,0,1,.6-1,1.8,1.8,0,0,1,.9-.6,2.7,2.7,0,0,1,1.2-.3h.8l.8.2-.2.9-.6-.2h-.7a1.6,1.6,0,0,0-1.4.5,3.4,3.4,0,0,0-.5,1.7,2.9,2.9,0,0,0,.2.9.9.9,0,0,0,.3.7l.6.5h1.7l.6-.2v.9h-1.6"/>
    <path id="Path_727" data-name="Path 727" class="cls-5" d="M718.6,34.6l-.7.8-.8,1.1-1,1.2-.8,1.3h3.4v.9H714v-.7a7.5,7.5,0,0,1,.7-1.2l.9-1.2.9-1.2.7-.9h-3v-.9h4.4Z"/>
    <path id="Path_728" data-name="Path 728" class="cls-5" d="M720,34l1-.2h1.4a2.3,2.3,0,0,1,1.2.2l.8.5a3.6,3.6,0,0,1,.4.9,4.9,4.9,0,0,1,.1,1.2v3.4h-1.1V35.7l-.3-.6a1,1,0,0,0-.5-.4h-1.9v5.2H720Z"/>
    <path id="Path_729" data-name="Path 729" class="cls-5" d="M725.7,41h.8a1.9,1.9,0,0,0,1-.3,3.1,3.1,0,0,0,.7-.9c-.5-1-1-2-1.4-3s-.8-2.1-1.1-3.2h1.2l.3,1.1.4,1.3a6.9,6.9,0,0,0,.5,1.3l.5,1.2a22.5,22.5,0,0,0,.8-2.4l.6-2.5h1.1a31.8,31.8,0,0,1-.9,3.3,20.9,20.9,0,0,1-1.1,3,4.1,4.1,0,0,1-.5.9l-.6.6-.6.4h-1.9Z"/>
    <path id="Path_730" data-name="Path 730" class="cls-5" d="M607.2,23.5a5.2,5.2,0,0,1-2.1-.4,3.1,3.1,0,0,1-1.5-1,4.6,4.6,0,0,1-.9-1.5,6.9,6.9,0,0,1-.3-2V10.9h2.3v7.5a3.2,3.2,0,0,0,.1,1.4,2.1,2.1,0,0,0,.6,1l.8.6h2.1l.8-.6a2.1,2.1,0,0,0,.6-1,5.9,5.9,0,0,0,.2-1.4V10.9h2.2v7.7a6.9,6.9,0,0,1-.3,2,4.6,4.6,0,0,1-.9,1.5,3.1,3.1,0,0,1-1.5,1,5.4,5.4,0,0,1-2.2.4"/>
    <path id="Path_731" data-name="Path 731" class="cls-5" d="M614.8,14.5a15.8,15.8,0,0,1,3.8-.5,6.3,6.3,0,0,1,1.9.3,2.7,2.7,0,0,1,1.2.9,3.1,3.1,0,0,1,.6,1.3,5.5,5.5,0,0,1,.2,1.8v5.2h-2.1V18.6a5.7,5.7,0,0,0-.1-1.3l-.3-.8-.6-.5-1-.2h-1.5v7.5h-2.1Z"/>
    <path id="Path_732" data-name="Path 732" class="cls-5" d="M627.4,11.5a1,1,0,0,1-.3.9,1.3,1.3,0,0,1-1,.4,1.2,1.2,0,0,1-.9-.4,1.1,1.1,0,0,1-.4-.9,1.2,1.2,0,0,1,.4-1,1.8,1.8,0,0,1,.9-.4,1.8,1.8,0,0,1,1,.4,1.1,1.1,0,0,1,.3,1m-.2,12h-2.1V14.2h2.1Z"/>
    <path id="Path_733" data-name="Path 733" class="cls-5" d="M632.9,13.8l1.8.2a3.6,3.6,0,0,1,1.2.8,2.3,2.3,0,0,1,.6,1.2,3.6,3.6,0,0,1,.2,1.5v5.6l-1.5.2a8.6,8.6,0,0,1-2.3.2l-1.5-.2a3.1,3.1,0,0,1-1.2-.5,1.6,1.6,0,0,1-.7-.9,3.2,3.2,0,0,1-.3-1.4,3.5,3.5,0,0,1,.3-1.4l.8-.9a2.8,2.8,0,0,1,1.3-.4l1.4-.2h.8l.8.2v-.4a2,2,0,0,0-.1-.7,1.5,1.5,0,0,0-.9-1h-2.2l-1.1.3-.2-1.8,1.2-.3h1.6m.2,8h1.5V19.3h-2l-.6.2a1,1,0,0,0-.5.4,1.4,1.4,0,0,0-.2.6,1.3,1.3,0,0,0,.5,1.1,3.1,3.1,0,0,0,1.3.3"/>
    <path id="Path_734" data-name="Path 734" class="cls-5" d="M643.4,23.5V11.2h7.9v1.9h-5.7v3h5.1V18h-5.1v3.6h6.1v1.9Z"/>
    <path id="Path_735" data-name="Path 735" class="cls-5" d="M660.9,23l-1.6.3-2.2.2a5.8,5.8,0,0,1-1.9-.3,2.7,2.7,0,0,1-1.2-.9,3.5,3.5,0,0,1-.6-1.4,3.2,3.2,0,0,1-.2-1.7V14h2.1v4.9a3.9,3.9,0,0,0,.4,2.1,1.7,1.7,0,0,0,1.6.6h1.4V14h2.2Z"/>
    <path id="Path_736" data-name="Path 736" class="cls-5" d="M668.8,16.1l-.7-.2H667l-1.3.2v7.5h-2.2V14.6l1.6-.4,2-.2h2.1Z"/>
    <path id="Path_737" data-name="Path 737" class="cls-5" d="M679,18.6a6.4,6.4,0,0,1-.3,2,3.9,3.9,0,0,1-1,1.6,2.8,2.8,0,0,1-1.4.9,3.7,3.7,0,0,1-1.8.4,3.9,3.9,0,0,1-1.8-.4,4.2,4.2,0,0,1-1.4-.9,5.1,5.1,0,0,1-.9-1.6,4.4,4.4,0,0,1-.3-2,4.4,4.4,0,0,1,.3-2,3.8,3.8,0,0,1,.9-1.5,3.3,3.3,0,0,1,1.4-1,4.2,4.2,0,0,1,3.6,0,2.8,2.8,0,0,1,1.4,1,3.8,3.8,0,0,1,.9,1.5,4.5,4.5,0,0,1,.4,2m-2.2,0a4,4,0,0,0-.6-2.2,2.2,2.2,0,0,0-3-.4l-.3.4a2.9,2.9,0,0,0-.6,2.2,2.9,2.9,0,0,0,.6,2.2,2.1,2.1,0,0,0,2.9.4c.1-.1.3-.2.4-.4a4,4,0,0,0,.6-2.2"/>
    <path id="Path_738" data-name="Path 738" class="cls-5" d="M689.5,18.8a6.4,6.4,0,0,1-.3,2,5.3,5.3,0,0,1-.8,1.5,3.1,3.1,0,0,1-1.3,1,3.7,3.7,0,0,1-1.8.4l-1.2-.2-.9-.3v3.6h-2.1V14.5l1.6-.3a7.1,7.1,0,0,1,2-.2,6.4,6.4,0,0,1,2,.3,4,4,0,0,1,1.5,1,4.6,4.6,0,0,1,.9,1.5,5.1,5.1,0,0,1,.4,2m-2.3.1a3.2,3.2,0,0,0-.6-2.3,3,3,0,0,0-2.1-.8h-1.3v5.3l.8.4h1a1.7,1.7,0,0,0,1.7-.8,3.1,3.1,0,0,0,.5-2.1"/>
    <path id="Path_739" data-name="Path 739" class="cls-5" d="M691.1,18.7a5.3,5.3,0,0,1,.3-2.2,4,4,0,0,1,1-1.5,4.2,4.2,0,0,1,6-.1,5.1,5.1,0,0,1,1,3.6v.8h-6.1a2.1,2.1,0,0,0,.8,1.7,2.4,2.4,0,0,0,2,.6h1.4l1.1-.3.2,1.7-.5.2-.7.2h-1.8a5.2,5.2,0,0,1-2.1-.4,3.1,3.1,0,0,1-1.5-1,3.8,3.8,0,0,1-.9-1.5,4.1,4.1,0,0,1-.2-1.9m6.2-1a1.9,1.9,0,0,0-.1-.8,1.6,1.6,0,0,0-.4-.7l-.6-.5-.8-.2-.9.2-.6.5a2.5,2.5,0,0,0-.4.7,2.4,2.4,0,0,0-.2.8Z"/>
    <path id="Path_740" data-name="Path 740" class="cls-5" d="M700.4,26.8H699l.3-1.8h1a1,1,0,0,0,1-.4,2.8,2.8,0,0,0,.3-1.3v-9h2.2v9a4.2,4.2,0,0,1-.9,2.7,3.4,3.4,0,0,1-2.5.9M704,11.5a1.1,1.1,0,0,1-.4.9,1.2,1.2,0,0,1-.9.4,1.3,1.3,0,0,1-1-.4,1.5,1.5,0,0,1-.4-.9,1.8,1.8,0,0,1,.4-1,1.8,1.8,0,0,1,1-.4,1.8,1.8,0,0,1,.9.4,1.3,1.3,0,0,1,.4,1"/>
    <path id="Path_741" data-name="Path 741" class="cls-5" d="M708.7,21.7a2,2,0,0,0,1.3-.2.6.6,0,0,0,.3-.7.7.7,0,0,0-.4-.7l-1.3-.7-1.1-.5-.9-.5a2.2,2.2,0,0,1-.5-.8,2,2,0,0,1-.2-1.1,2.2,2.2,0,0,1,.9-2,5,5,0,0,1,2.6-.8l1.5.2,1.2.3-.4,1.7-.9-.3h-1.3l-1.1.2a1,1,0,0,0-.4.7c0,.2,0,.3.1.4l.3.3a.5.5,0,0,0,.5.3l.8.4,1.3.5.8.6a1.8,1.8,0,0,1,.5.8,2.2,2.2,0,0,1,.2,1.1,2.2,2.2,0,0,1-1,2,4.5,4.5,0,0,1-2.8.7l-2-.2-1-.3.4-1.8,1.1.3a3.9,3.9,0,0,0,1.5.2"/>
    <path id="Path_742" data-name="Path 742" class="cls-5" d="M716.5,17.8l.9-.9.9-1,.9-.9.7-.8h2.5l-1.9,2.1a18.9,18.9,0,0,1-2,2l1.2,1.1,1.1,1.3a13,13,0,0,1,1,1.5,5.7,5.7,0,0,1,.8,1.3h-2.5a7.5,7.5,0,0,0-.7-1.2l-.9-1.1a5.2,5.2,0,0,0-1-1.1l-.9-.9v4.3h-2.2v-12l2.1-.3Z"/>
    <path id="Path_743" data-name="Path 743" class="cls-5" d="M727.2,13.8l1.8.2,1.1.8a3.5,3.5,0,0,1,.7,1.2,7.1,7.1,0,0,1,.1,1.5v5.6l-1.5.2a8.2,8.2,0,0,1-2.2.2l-1.6-.2a2.2,2.2,0,0,1-1.1-.5,1.8,1.8,0,0,1-.8-.9,3.2,3.2,0,0,1-.3-1.4,3.5,3.5,0,0,1,.3-1.4,3.8,3.8,0,0,1,.9-.9,2.8,2.8,0,0,1,1.2-.4l1.5-.2h.7l.9.2v-.4c0-.2-.1-.4-.1-.7l-.3-.6-.6-.4h-2.3a3.8,3.8,0,0,0-1,.3l-.3-1.8,1.2-.3h1.7m.2,8h1.5V19.3h-2l-.7.2a.8.8,0,0,0-.4.4.7.7,0,0,0-.2.6.9.9,0,0,0,.5,1.1,2.8,2.8,0,0,0,1.3.3"/>
  </g>
</svg>
